<svg xmlns="http://www.w3.org/2000/svg" viewBox="0 0 96 96" fill="none" aria-hidden="true">
  <defs>
    <linearGradient id="sg" x1="16" y1="12" x2="80" y2="88" gradientUnits="userSpaceOnUse">
      <stop stop-color="#06b6d4"/>
      <stop offset="0.5" stop-color="#3b82f6"/>
      <stop offset="1" stop-color="#8b5cf6"/>
    </linearGradient>
  </defs>
  <circle cx="48" cy="48" r="44" fill="url(#sg)"/>
  <circle cx="48" cy="48" r="44" stroke="#fff" stroke-opacity="0.18" stroke-width="1.5"/>
  <!-- Sparkle star center -->
  <path d="M48 24 L51 40 L67 43 L51 46 L48 62 L45 46 L29 43 L45 40 Z" fill="#e0f2fe" fill-opacity="0.95"/>
  <!-- Small sparkles -->
  <path d="M68 26 L69.5 31 L74.5 32.5 L69.5 34 L68 39 L66.5 34 L61.5 32.5 L66.5 31 Z" fill="#bfdbfe" fill-opacity="0.85"/>
  <path d="M28 58 L29.5 63 L34.5 64.5 L29.5 66 L28 71 L26.5 66 L21.5 64.5 L26.5 63 Z" fill="#bfdbfe" fill-opacity="0.85"/>
  <!-- Subtle ring -->
  <circle cx="48" cy="43" r="10" stroke="#fff" stroke-opacity="0.3" stroke-width="1.5" fill="none"/>
</svg>
